#!OML:ASF H:\Terrain\Walking\May29\JustinRory\Justin.ASF
:FULLY-SPECIFIED
:DEGREES
374
root 9.8456 17.1748 21.8047 -340.858 -35.7273 -3.58278
lowerback 15.4629 -3.15559 -5.38841
upperback 3.87854 -4.91124 2.61726
thorax -3.81301 -2.43222 6.71261
lowerneck -12.9971 -11.723 -15.8431
upperneck 19.2858 -15.5391 11.9051
head 10.5386 -7.23833 4.52283
rclavicle -1.70955e-013 3.33958e-014
rhumerus -70.5124 -47.597 32.5453
rradius 31.0147
rwrist -43.5174
rhand 81.9265 48.7262
rfingers 7.12502
rthumb 66.1889 -145.588
lclavicle -1.70955e-013 3.33958e-014
lhumerus -33.9669 11.6027 63.511
lradius 71.4081
lwrist 3.64602
lhand -4.86897 37.0407
lfingers 7.12502
lthumb 20.9193 65.9327
rfemur -41.8771 -0.787167 12.1659
rtibia 71.8101
rfoot -14.6983 -4.73378
rtoes -8.03098
lfemur -19.0718 5.37655 -31.9646
ltibia 34.7396
lfoot -31.8052 8.27295
ltoes 16.8827
375
root 9.79769 17.1653 21.9162 -340.566 -35.4254 -4.25963
lowerback 15.6159 -3.20312 -5.08753
upperback 4.05914 -4.92695 2.77821
thorax -3.71234 -2.45293 6.72026
lowerneck -13.7986 -12.4698 -15.8492
upperneck 20.068 -16.4531 11.4767
head 11.0768 -7.65074 4.15576
rclavicle 2.38542e-014 1.27222e-014
rhumerus -70.1901 -47.6748 31.7989
rradius 31.0996
rwrist -43.5537
rhand 82.8046 49.0949
rfingers 7.12502
rthumb 65.546 -146.518
lclavicle 2.38542e-014 1.27222e-014
lhumerus -33.3995 11.3519 63.3453
lradius 73.0822
lwrist 4.58301
lhand -4.87116 37.2318
lfingers 7.12502
lthumb 20.9172 66.1241
rfemur -43.0486 -0.49244 13.1326
rtibia 71.2045
rfoot -15.7491 -4.56292
rtoes -6.54329
lfemur -18.112 5.01079 -31.3459
ltibia 34.0057
lfoot -31.7368 8.85659
ltoes 15.9384
376
root 9.77702 17.127 22.0297 -341.058 -35.4771 -3.19415
lowerback 15.8294 -3.40454 -5.95119
upperback 3.98211 -5.35344 2.38055
thorax -3.8019 -2.65019 6.87478
lowerneck -12.4475 -11.9659 -15.7578
upperneck 18.5865 -16.1013 12.6978
head 10.3417 -7.44903 4.71035
rclavicle -7.31528e-014 -4.37326e-014
rhumerus -69.6405 -48.1229 30.959
rradius 31.0441
rwrist -43.2681
rhand 84.2275 49.3968
rfingers 7.12502
rthumb 64.4575 -148.134
lclavicle -7.31528e-014 -4.37326e-014
lhumerus -33.4026 11.2667 62.7538
lradius 74.8428
lwrist 5.28203
lhand -5.36703 37.2036
lfingers 7.12502
lthumb 20.4407 66.1477
rfemur -44.6583 -0.793167 12.37
rtibia 70.6702
rfoot -15.975 -3.87755
rtoes -7.86962
lfemur -17.3962 4.35872 -32.4368
ltibia 33.2607
lfoot -31.5129 9.71121
ltoes 13.9157
377
root 9.7464 17.103 22.1448 -341.425 -35.2718 -2.73749
lowerback 16.1904 -2.97903 -6.15171
upperback 4.19526 -4.83353 2.64506
thorax -3.80669 -2.40236 7.20931
lowerneck -12.8027 -12.8763 -17.1931
upperneck 18.4921 -17.1299 13.2225
head 10.7363 -7.94146 4.89102
rclavicle -7.27552e-014 -2.54444e-014
rhumerus -70.7583 -48.0225 32.8614
rradius 30.8626
rwrist -43.2136
rhand 83.4014 49.6075
rfingers 7.12502
rthumb 64.9869 -148.524
lclavicle -7.27552e-014 -2.54444e-014
lhumerus -32.0243 10.4601 64.3183
lradius 76.3156
lwrist 5.17566
lhand -5.63211 37.0774
lfingers 7.12502
lthumb 20.186 66.0486
rfemur -45.8375 -1.00953 12.2536
rtibia 69.9376
rfoot -16.4935 -3.41748
rtoes -11.6376
lfemur -16.4602 3.72602 -32.8717
ltibia 32.6136
lfoot -31.7369 9.84483
ltoes 15.8819
378
root 9.71493 17.0905 22.2645 -341.159 -35.0789 -3.06907
lowerback 16.4172 -2.98105 -6.00019
upperback 4.23278 -4.81923 2.72372
thorax -3.89644 -2.3934 7.2231
lowerneck -12.861 -13.171 -17.0164
upperneck 18.3536 -17.5537 13.2083
head 10.7497 -8.12162 4.7695
rclavicle -2.22639e-014 -1.59028e-015
rhumerus -70.3339 -47.989 32.305
rradius 30.67
rwrist -43.24
rhand 82.9137 49.8648
rfingers 7.12502
rthumb 65.1592 -150.025
lclavicle -2.22639e-014 -1.59028e-015
lhumerus -31.6703 10.1578 64.3561
lradius 78.0489
lwrist 5.26498
lhand -5.47725 37.3172
lfingers 7.12502
lthumb 20.3348 66.2726
rfemur -47.1486 -0.98695 12.8082
rtibia 69.1055
rfoot -17.3249 -2.78855
rtoes -12.0312
lfemur -15.7346 3.39394 -32.6657
ltibia 31.9481
lfoot -31.9591 9.86682
ltoes 17.9331
379
root 9.68594 17.0683 22.3775 -340.941 -34.8938 -3.18027
lowerback 16.6284 -3.23705 -6.04512
upperback 4.21948 -5.18446 2.45565
thorax -3.98614 -2.56596 7.04015
lowerneck -12.3213 -13.0743 -16.2459
upperneck 17.8953 -17.7079 13.5837
head 10.4731 -8.1467 4.78786
rclavicle -4.37326e-015 3.73715e-014
rhumerus -69.9745 -48.454 31.4145
rradius 30.5587
rwrist -42.9358
rhand 84.859 50.1114
rfingers 7.12502
rthumb 63.5438 -152.414
lclavicle -4.37326e-015 3.73715e-014
lhumerus -31.6823 10.1318 63.319
lradius 79.8211
lwrist 5.63947
lhand -5.17225 37.4029
lfingers 7.12502
lthumb 20.6279 66.3268
rfemur -48.5243 -1.05838 13.1679
rtibia 68.2714
rfoot -17.7592 -1.85196
rtoes -10.5059
lfemur -15.0959 3.14956 -32.6684
ltibia 31.2482
lfoot -32.048 10.1032
ltoes 17.5525
380
root 9.65013 17.0381 22.4828 -341.247 -34.584 -2.75883
lowerback 17.1305 -3.32911 -6.48343
upperback 4.27204 -5.41653 2.22828
thorax -4.14053 -2.67035 7.12619
lowerneck -12.0777 -13.2594 -15.9331
upperneck 17.6677 -18.1594 14.0413
head 10.4414 -8.31225 4.82678
rclavicle 7.95139e-014 -3.33958e-014
rhumerus -70.3178 -48.8062 31.5266
rradius 30.5949
rwrist -42.4661
rhand 86.6471 50.2215
rfingers 7.12502
rthumb 62.1545 -153.585
lclavicle 7.95139e-014 -3.33958e-014
lhumerus -31.3814 9.78329 62.8042
lradius 81.3655
lwrist 5.36575
lhand -5.05262 36.9564
lfingers 7.12502
lthumb 20.7429 65.8678
rfemur -49.6158 -1.43282 13.1323
rtibia 67.4149
rfoot -17.9176 -0.8713
rtoes -10.4781
lfemur -14.2224 2.80155 -33.0368
ltibia 30.6166
lfoot -32.2746 10.1614
ltoes 17.5828
381
root 9.61256 16.9932 22.579 -342.43 -34.4678 -1.03266
lowerback 17.8784 -3.19312 -7.8576
upperback 4.26961 -5.55406 1.78061
thorax -4.42617 -2.71116 7.51474
lowerneck -11.5318 -13.5938 -16.1151
upperneck 17.2258 -18.7764 14.6938
head 10.3818 -8.58748 4.98811
rclavicle -1.00983e-013 -1.11319e-014
rhumerus -70.8044 -48.6347 31.7632
rradius 30.7121
rwrist -42.0352
rhand 87.0223 50.3172
rfingers 7.12502
rthumb 61.8911 -153.719
lclavicle -1.00983e-013 -1.11319e-014
lhumerus -30.9751 9.1004 62.7835
lradius 82.8384
lwrist 4.60998
lhand -5.14829 36.4398
lfingers 7.12502
lthumb 20.6509 65.3612
rfemur -50.7423 -2.12553 11.8963
rtibia 66.7154
rfoot -17.9558 0.238918
rtoes -12.3927
lfemur -13.141 2.5688 -34.5624
ltibia 29.8523
lfoot -32.4567 9.86572
ltoes 18.9381
382
root 9.58107 16.9731 22.6942 -342.073 -34.125 -1.0787
lowerback 18.0132 -3.27754 -8.12897
upperback 4.29712 -5.70674 2.05228
thorax -4.38099 -2.78972 8.00234
lowerneck -11.1071 -13.686 -16.5499
upperneck 16.4535 -18.9254 15.3436
head 10.1786 -8.6656 5.26927
rclavicle -1.09729e-013 2.70347e-014
rhumerus -70.7062 -49.2892 31.9907
rradius 30.6771
rwrist -41.3303
rhand 87.2047 50.4787
rfingers 7.12502
rthumb 61.8376 -153.476
lclavicle -1.09729e-013 2.70347e-014
lhumerus -30.7636 9.45017 63.067
lradius 84.4491
lwrist 4.01828
lhand -5.08146 36.0796
lfingers 7.12502
lthumb 20.7151 64.994
rfemur -52.1844 -2.41208 12.2625
rtibia 65.8267
rfoot -18.1683 1.26168
rtoes -14.0439
lfemur -12.6117 2.41187 -34.5302
ltibia 29.0234
lfoot -32.4849 9.55464
ltoes 20.2145
383
root 9.54779 16.9459 22.8128 -342.491 -33.877 -0.372127
lowerback 18.3994 -3.31295 -8.84823
upperback 4.47365 -5.9169 1.95289
thorax -4.28628 -2.90156 8.36584
lowerneck -11.1338 -13.8855 -16.5123
upperneck 16.1442 -19.2369 15.6511
head 10.1632 -8.78736 5.30404
rclavicle -4.92986e-014 6.44062e-014
rhumerus -70.7137 -49.6193 31.6819
rradius 30.9644
rwrist -41.3205
rhand 87.4784 50.5464
rfingers 7.12502
rthumb 61.6877 -153.349
lclavicle -4.92986e-014 6.44062e-014
lhumerus -30.3815 9.56504 63.0202
lradius 85.975
lwrist 3.40141
lhand -4.6458 35.7221
lfingers 7.12502
lthumb 21.1337 64.5903
rfemur -53.1661 -2.88566 11.8772
rtibia 65.0013
rfoot -18.5509 2.92266
rtoes -13.2676
lfemur -11.5468 2.13689 -35.1756
ltibia 28.0298
lfoot -32.3433 9.39043
ltoes 20.6279
384
root 9.51086 16.9056 22.921 -343.002 -33.5479 0.602681
lowerback 18.7965 -3.36141 -9.65423
upperback 4.62295 -6.17812 1.64654
thorax -4.22498 -3.03373 8.56337
lowerneck -10.5817 -14.1628 -16.5836
upperneck 15.3467 -19.8092 16.6276
head 10.015 -9.03187 5.56567
rclavicle 4.13472e-014 0
rhumerus -70.3552 -49.3862 30.2757
rradius 31.4643
rwrist -42.2335
rhand 86.7809 50.6263
rfingers 7.12502
rthumb 62.1933 -153.205
lclavicle 4.13472e-014 0
lhumerus -29.8922 9.20631 62.645
lradius 87.294
lwrist 2.6711
lhand -4.37481 35.4155
lfingers 7.12502
lthumb 21.394 64.2543
rfemur -54.1711 -3.46488 11.1998
rtibia 64.0924
rfoot -18.8407 4.83562
rtoes -12.8263
lfemur -10.6037 2.01915 -36.0227
ltibia 27.1419
lfoot -32.2505 8.82271
ltoes 21.6002
